<?xml version="1.0" encoding="UTF-8"?>
<!DOCTYPE svg PUBLIC "-//W3C//DTD SVG 1.1//EN" "http://www.w3.org/Graphics/SVG/1.1/DTD/svg11.dtd">
<svg xmlns="http://www.w3.org/2000/svg" version="1.1" width="501px" height="498px" style="shape-rendering:geometricPrecision; text-rendering:geometricPrecision; image-rendering:optimizeQuality; fill-rule:evenodd; clip-rule:evenodd" xmlns:xlink="http://www.w3.org/1999/xlink">
<g><path style="opacity:0.455" fill="#ffffff" d="M 264.5,66.5 C 259.5,66.5 254.5,66.5 249.5,66.5C 251.831,65.6827 254.331,65.0161 257,64.5C 259.669,65.0161 262.169,65.6827 264.5,66.5 Z"/></g>
<g><path style="opacity:0.043" fill="#ffffff" d="M 269.5,67.5 C 267.901,67.7678 266.568,67.4345 265.5,66.5C 265.435,66.0618 265.601,65.7284 266,65.5C 267.302,66.0848 268.469,66.7515 269.5,67.5 Z"/></g>
<g><path style="opacity:1"     fill="#ffffff" d="M 248.5,66.5 C 248.833,66.5 249.167,66.5 249.5,66.5C 254.5,66.5 259.5,66.5 264.5,66.5C 264.833,66.5 265.167,66.5 265.5,66.5C 266.568,67.4345 267.901,67.7678 269.5,67.5C 269.5,67.8333 269.5,68.1667 269.5,68.5C 262.159,68.3337 254.826,68.5003 247.5,69C 245.351,70.152 243.518,71.652 242,73.5C 237.684,71.3986 235.184,72.732 234.5,77.5C 234.818,78.6473 235.484,79.4806 236.5,80C 235.944,80.3826 235.611,80.8826 235.5,81.5C 230.35,78.3566 230.35,75.1899 235.5,72C 239.904,70.0413 244.238,68.208 248.5,66.5 Z"/></g>
<g><path style="opacity:1"     fill="#ffffff" d="M 269.5,68.5 C 272.833,69.8333 276.167,71.1667 279.5,72.5C 280.262,74.2624 281.596,75.2624 283.5,75.5C 283.525,78.179 284.858,79.5123 287.5,79.5C 287.738,81.4044 288.738,82.7377 290.5,83.5C 290.427,85.0269 291.094,86.0269 292.5,86.5C 293.617,90.5168 294.95,94.5168 296.5,98.5C 296.5,98.8333 296.5,99.1667 296.5,99.5C 296.873,107.365 295.873,115.031 293.5,122.5C 293.34,124.153 292.674,125.486 291.5,126.5C 289.738,127.262 288.738,128.596 288.5,130.5C 285.833,132.5 283.5,134.833 281.5,137.5C 279.853,139.326 277.853,140.66 275.5,141.5C 273.62,141.229 272.287,141.896 271.5,143.5C 271.167,143.5 270.833,143.5 270.5,143.5C 267.933,143.721 265.599,144.388 263.5,145.5C 263.167,145.5 262.833,145.5 262.5,145.5C 261.5,145.5 260.5,145.5 259.5,145.5C 259.259,147.898 259.926,149.898 261.5,151.5C 261.5,151.833 261.5,152.167 261.5,152.5C 261.171,155.228 261.837,157.562 263.5,159.5C 263.41,162.152 264.076,164.485 265.5,166.5C 266.434,167.568 266.768,168.901 266.5,170.5C 266.216,172.415 266.549,174.081 267.5,175.5C 267.41,178.152 268.076,180.485 269.5,182.5C 269.171,185.228 269.837,187.562 271.5,189.5C 271.517,191.565 271.85,193.565 272.5,195.5C 272.5,196.833 272.5,198.167 272.5,199.5C 268.19,198.92 263.857,198.586 259.5,198.5C 259.389,197.883 259.056,197.383 258.5,197C 253.749,196.811 249.083,196.145 244.5,195C 236.988,194.178 229.655,194.345 222.5,195.5C 213.715,196.538 205.715,199.538 198.5,204.5C 195.557,198.938 191.89,193.938 187.5,189.5C 187.579,188.07 187.246,186.736 186.5,185.5C 179.831,181.379 172.665,178.712 165,177.5C 162.356,180.249 159.356,181.582 156,181.5C 155.53,182.577 155.697,183.577 156.5,184.5C 155.167,184.5 153.833,184.5 152.5,184.5C 152.167,181.167 151.833,177.833 151.5,174.5C 148.302,173.964 145.635,174.631 143.5,176.5C 132.016,181.132 121.016,180.132 110.5,173.5C 110.027,172.094 109.027,171.427 107.5,171.5C 106.415,169.413 104.749,168.08 102.5,167.5C 101.5,167.167 100.833,166.5 100.5,165.5C 100.262,163.596 99.2624,162.262 97.5,161.5C 97.1667,160.167 96.8333,158.833 96.5,157.5C 95.944,153.039 94.7774,148.706 93,144.5C 92.5007,139.511 92.3341,134.511 92.5,129.5C 94.5848,127.316 95.5848,124.649 95.5,121.5C 97.4077,120.514 98.4077,118.848 98.5,116.5C 102.167,113.5 105.5,110.167 108.5,106.5C 117.661,101.04 127.661,99.0402 138.5,100.5C 137.79,109.756 138.79,118.756 141.5,127.5C 142.167,129.5 142.833,131.5 143.5,133.5C 147.617,140.15 148.284,139.817 145.5,132.5C 145.204,130.597 144.537,128.93 143.5,127.5C 142.567,117.147 143.901,107.147 147.5,97.5C 148.906,97.0269 149.573,96.0269 149.5,94.5C 156.022,82.2289 166.022,74.2289 179.5,70.5C 186.131,69.669 192.798,69.3357 199.5,69.5C 209.787,70.4744 218.787,74.4744 226.5,81.5C 230.146,87.5074 234.146,93.1741 238.5,98.5C 239.345,99.6715 240.011,101.005 240.5,102.5C 240.969,106.851 241.636,111.184 242.5,115.5C 242.833,113 243.167,110.5 243.5,108C 243.651,103.888 242.984,100.054 241.5,96.5C 239.886,91.3188 237.886,86.3188 235.5,81.5C 235.611,80.8826 235.944,80.3826 236.5,80C 235.484,79.4806 234.818,78.6473 234.5,77.5C 235.184,72.732 237.684,71.3986 242,73.5C 243.518,71.652 245.351,70.152 247.5,69C 254.826,68.5003 262.159,68.3337 269.5,68.5 Z"/></g>
<g><path style="opacity:0.333" fill="#ffffff" d="M 269.5,68.5 C 269.5,68.1667 269.5,67.8333 269.5,67.5C 273.42,68.1266 276.753,69.7933 279.5,72.5C 276.167,71.1667 272.833,69.8333 269.5,68.5 Z"/></g>
<g><path style="opacity:0.741" fill="#ffffff" d="M 199.5,69.5 C 192.798,69.3357 186.131,69.669 179.5,70.5C 183.034,68.9524 186.867,68.2857 191,68.5C 194.021,68.5022 196.854,68.8356 199.5,69.5 Z"/></g>
<g><path style="opacity:1"     fill="#ffffff" d="M 283.5,75.5 C 285.167,76.5 286.5,77.8333 287.5,79.5C 284.858,79.5123 283.525,78.179 283.5,75.5 Z"/></g>
<g><path style="opacity:0.467" fill="#ffffff" d="M 287.5,79.5 C 289.262,80.2623 290.262,81.5956 290.5,83.5C 288.738,82.7377 287.738,81.4044 287.5,79.5 Z"/></g>
<g><path style="opacity:0.973" fill="#ffffff" d="M 226.5,81.5 C 231.738,86.3156 235.738,91.9823 238.5,98.5C 234.146,93.1741 230.146,87.5074 226.5,81.5 Z"/></g>
<g><path style="opacity:0.482" fill="#ffffff" d="M 149.5,94.5 C 149.573,96.0269 148.906,97.0269 147.5,97.5C 147.427,95.9731 148.094,94.9731 149.5,94.5 Z"/></g>
<g><path style="opacity:0.384" fill="#ffffff" d="M 241.5,96.5 C 242.984,100.054 243.651,103.888 243.5,108C 243.167,110.5 242.833,113 242.5,115.5C 241.636,111.184 240.969,106.851 240.5,102.5C 241.461,100.735 241.795,98.7354 241.5,96.5 Z"/></g>
<g><path style="opacity:0.71"  fill="#ffffff" d="M 108.5,106.5 C 105.5,110.167 102.167,113.5 98.5,116.5C 100.833,112.167 104.167,108.833 108.5,106.5 Z"/></g>
<g><path style="opacity:0.98"  fill="#ffffff" d="M 98.5,116.5 C 98.4077,118.848 97.4077,120.514 95.5,121.5C 95.7497,119.326 96.7497,117.659 98.5,116.5 Z"/></g>
<g><path style="opacity:0.961" fill="#ffffff" d="M 95.5,121.5 C 95.5848,124.649 94.5848,127.316 92.5,129.5C 92.4152,126.351 93.4152,123.684 95.5,121.5 Z"/></g>
<g><path style="opacity:0.624" fill="#ffffff" d="M 145.5,132.5 C 148.284,139.817 147.617,140.15 143.5,133.5C 144.492,133.672 145.158,133.338 145.5,132.5 Z"/></g>
<g><path style="opacity:1"     fill="#ffffff" d="M 92.5,129.5 C 92.3341,134.511 92.5007,139.511 93,144.5C 94.7774,148.706 95.944,153.039 96.5,157.5C 95.3127,155.928 94.3127,154.261 93.5,152.5C 93.405,150.214 92.7384,148.214 91.5,146.5C 89.9781,140.611 90.3114,134.944 92.5,129.5 Z"/></g>
<g><path style="opacity:0.502" fill="#ffffff" d="M 261.5,152.5 C 262.924,154.515 263.59,156.848 263.5,159.5C 261.837,157.562 261.171,155.228 261.5,152.5 Z"/></g>
<g><path style="opacity:0.412" fill="#ffffff" d="M 93.5,152.5 C 94.3127,154.261 95.3127,155.928 96.5,157.5C 96.8333,158.833 97.1667,160.167 97.5,161.5C 94.8352,159.165 93.5018,156.165 93.5,152.5 Z"/></g>
<g><path style="opacity:0.529" fill="#ffffff" d="M 263.5,159.5 C 264.924,161.515 265.59,163.848 265.5,166.5C 264.076,164.485 263.41,162.152 263.5,159.5 Z"/></g>
<g><path style="opacity:0.016" fill="#ffffff" d="M 97.5,161.5 C 99.2624,162.262 100.262,163.596 100.5,165.5C 98.7376,164.738 97.7376,163.404 97.5,161.5 Z"/></g>
<g><path style="opacity:0.773" fill="#ffffff" d="M 102.5,167.5 C 104.749,168.08 106.415,169.413 107.5,171.5C 105.251,170.92 103.585,169.587 102.5,167.5 Z"/></g>
<g><path style="opacity:0.592" fill="#ffffff" d="M 107.5,171.5 C 109.027,171.427 110.027,172.094 110.5,173.5C 110.167,173.5 109.833,173.5 109.5,173.5C 108.5,173.167 107.833,172.5 107.5,171.5 Z"/></g>
<g><path style="opacity:0.659" fill="#ffffff" d="M 266.5,170.5 C 267.928,172.074 268.261,173.741 267.5,175.5C 266.549,174.081 266.216,172.415 266.5,170.5 Z"/></g>
<g><path style="opacity:0.737" fill="#ffffff" d="M 267.5,175.5 C 268.924,177.515 269.59,179.848 269.5,182.5C 268.076,180.485 267.41,178.152 267.5,175.5 Z"/></g>
<g><path style="opacity:0.877" fill="#ffffff" d="M 187.5,189.5 C 178.217,181.09 167.884,179.423 156.5,184.5C 155.697,183.577 155.53,182.577 156,181.5C 159.356,181.582 162.356,180.249 165,177.5C 172.665,178.712 179.831,181.379 186.5,185.5C 187.246,186.736 187.579,188.07 187.5,189.5 Z"/></g>
<g><path style="opacity:0.976" fill="#ffffff" d="M 156.5,184.5 C 155.746,186.446 154.412,187.279 152.5,187C 151.566,183.51 150.566,180.01 149.5,176.5C 147.599,175.769 145.599,175.769 143.5,176.5C 145.635,174.631 148.302,173.964 151.5,174.5C 151.833,177.833 152.167,181.167 152.5,184.5C 153.833,184.5 155.167,184.5 156.5,184.5 Z"/></g>
<g><path style="opacity:0.498" fill="#ffffff" d="M 269.5,182.5 C 270.738,184.214 271.405,186.214 271.5,188.5C 271.5,188.833 271.5,189.167 271.5,189.5C 269.837,187.562 269.171,185.228 269.5,182.5 Z"/></g>
<g><path style="opacity:1"     fill="#ffffff" d="M 206.5,204.5 C 212.615,203.327 218.782,202.327 225,201.5C 236.767,203.354 248.601,204.354 260.5,204.5C 265.152,204.998 269.819,205.331 274.5,205.5C 278.919,206.972 283.586,207.638 288.5,207.5C 293.452,208.492 298.452,209.158 303.5,209.5C 306.627,210.581 309.96,211.247 313.5,211.5C 317.824,211.927 322.158,212.261 326.5,212.5C 326.833,212.5 327.167,212.5 327.5,212.5C 332.765,214.15 338.099,215.483 343.5,216.5C 351.988,218.804 360.655,221.471 369.5,224.5C 369.5,225.5 369.5,226.5 369.5,227.5C 373.857,226.796 377.357,228.13 380,231.5C 381.145,230.316 382.312,230.316 383.5,231.5C 385.833,233.5 388.167,235.5 390.5,237.5C 390.427,239.027 391.094,240.027 392.5,240.5C 392.427,242.027 393.094,243.027 394.5,243.5C 394.502,247.165 395.835,250.165 398.5,252.5C 398.259,254.898 398.926,256.898 400.5,258.5C 400.41,261.152 401.076,263.485 402.5,265.5C 403.057,270.052 404.057,274.385 405.5,278.5C 406.675,282.042 407.341,285.709 407.5,289.5C 408.57,296.85 408.57,304.183 407.5,311.5C 407.167,311.5 406.833,311.5 406.5,311.5C 404.139,311.674 401.806,312.007 399.5,312.5C 384.82,313.931 370.154,313.764 355.5,312C 352.17,310.77 348.836,309.603 345.5,308.5C 344.833,304.5 344.167,304.5 343.5,308.5C 339.489,307.663 335.823,305.996 332.5,303.5C 331.713,304.242 331.047,305.075 330.5,306C 331.38,307.356 331.714,308.856 331.5,310.5C 332.833,310.5 334.167,310.5 335.5,310.5C 336.167,310.5 336.833,310.5 337.5,310.5C 337.973,311.906 338.973,312.573 340.5,312.5C 341.514,313.674 342.847,314.34 344.5,314.5C 348.894,317.859 353.894,319.859 359.5,320.5C 361.099,320.232 362.432,320.566 363.5,321.5C 366.495,323.243 369.829,324.243 373.5,324.5C 374.263,325.268 375.263,325.768 376.5,326C 382.825,326.5 389.158,326.666 395.5,326.5C 395.5,327.5 395.5,328.5 395.5,329.5C 392.966,329.259 391.3,330.259 390.5,332.5C 388.426,333.514 386.426,334.514 384.5,335.5C 381.273,335.676 378.273,336.343 375.5,337.5C 372.904,338.265 370.237,338.599 367.5,338.5C 361.158,338.334 354.825,338.5 348.5,339C 340.077,340.271 331.744,341.604 323.5,343C 321.389,343.845 319.389,344.678 317.5,345.5C 312.039,346.508 306.706,347.508 301.5,348.5C 300.788,364.026 300.122,379.692 299.5,395.5C 299.5,396.5 299.5,397.5 299.5,398.5C 299.5,398.833 299.5,399.167 299.5,399.5C 298.069,400.78 297.402,402.447 297.5,404.5C 297.167,405.5 296.5,406.167 295.5,406.5C 293.181,406.992 291.181,407.992 289.5,409.5C 289.158,410.338 288.492,410.672 287.5,410.5C 284.084,410.528 281.084,411.528 278.5,413.5C 276.139,413.674 273.806,414.007 271.5,414.5C 264.248,415.607 256.914,416.44 249.5,417C 248.619,417.708 247.953,418.542 247.5,419.5C 241.949,419.527 236.616,420.194 231.5,421.5C 230.5,421.5 229.5,421.5 228.5,421.5C 218.167,421.5 207.833,421.5 197.5,421.5C 195.5,422.833 193.5,422.833 191.5,421.5C 189.485,420.076 187.152,419.41 184.5,419.5C 181.495,417.723 178.162,416.723 174.5,416.5C 173.508,416.672 172.842,416.338 172.5,415.5C 171.415,413.413 169.749,412.08 167.5,411.5C 166.5,411.167 165.833,410.5 165.5,409.5C 163.242,403.259 161.909,396.925 161.5,390.5C 160.167,389.167 160.167,387.833 161.5,386.5C 161.5,358.833 161.5,331.167 161.5,303.5C 162.972,299.081 163.638,294.414 163.5,289.5C 163.5,288.833 163.5,288.167 163.5,287.5C 165.054,283.433 165.72,279.1 165.5,274.5C 165.5,274.167 165.5,273.833 165.5,273.5C 166.768,271.095 167.435,268.428 167.5,265.5C 167.852,262.572 168.518,259.738 169.5,257C 174.773,257.339 180.107,257.506 185.5,257.5C 190.375,257.152 190.041,256.485 184.5,255.5C 163.463,251.443 151.463,238.777 148.5,217.5C 148.176,213.445 148.509,209.445 149.5,205.5C 151.395,202.379 152.728,199.046 153.5,195.5C 157.618,189.689 163.285,187.522 170.5,189C 181.735,191.939 190.402,198.272 196.5,208C 200.058,207.641 203.391,206.475 206.5,204.5 Z M 226.5,247.5 C 229.239,243.624 232.905,240.957 237.5,239.5C 239.167,239.5 240.833,239.5 242.5,239.5C 242.714,237.856 242.38,236.356 241.5,235C 248.181,236.347 252.348,240.513 254,247.5C 254.173,262.658 246.673,269.492 231.5,268C 217.726,261.342 214.892,251.509 223,238.5C 227.684,233.622 233.184,232.122 239.5,234C 225.544,233.951 219.377,240.784 221,254.5C 222.011,255.337 223.178,255.67 224.5,255.5C 224.963,252.779 225.629,250.112 226.5,247.5 Z"/></g>
<g><path style="opacity:0.988" fill="#ffffff" d="M 153.5,195.5 C 152.728,199.046 151.395,202.379 149.5,205.5C 148.509,209.445 148.176,213.445 148.5,217.5C 147.352,213.019 147.185,208.352 148,203.5C 149.116,200.244 150.949,197.578 153.5,195.5 Z"/></g>
<g><path style="opacity:0.988" fill="#ffffff" d="M 235.5,200.5 C 241.962,201.978 248.628,202.978 255.5,203.5C 257.415,203.216 259.081,203.549 260.5,204.5C 248.601,204.354 236.767,203.354 225,201.5C 218.782,202.327 212.615,203.327 206.5,204.5C 208.019,203.59 209.685,202.757 211.5,202C 219.459,200.836 227.459,200.336 235.5,200.5 Z"/></g>
<g><path style="opacity:0.482" fill="#ffffff" d="M 272.5,195.5 C 273.451,196.919 273.784,198.585 273.5,200.5C 268.586,200.638 263.919,199.972 259.5,198.5C 263.857,198.586 268.19,198.92 272.5,199.5C 272.5,198.167 272.5,196.833 272.5,195.5 Z"/></g>
<g><path style="opacity:0.951" fill="#ffffff" d="M 222.5,195.5 C 229.655,194.345 236.988,194.178 244.5,195C 249.083,196.145 253.749,196.811 258.5,197C 259.056,197.383 259.389,197.883 259.5,198.5C 247.245,196.583 234.912,195.583 222.5,195.5 Z"/></g>
<g><path style="opacity:0.58"  fill="#ffffff" d="M 303.5,209.5 C 304.167,209.5 304.833,209.5 305.5,209.5C 308.279,209.279 310.946,209.612 313.5,210.5C 313.5,210.833 313.5,211.167 313.5,211.5C 309.96,211.247 306.627,210.581 303.5,209.5 Z"/></g>
<g><path style="opacity:0.29"  fill="#ffffff" d="M 357.5,218.5 C 361.162,218.723 364.495,219.723 367.5,221.5C 363.838,221.277 360.505,220.277 357.5,218.5 Z"/></g>
<g><path style="opacity:0.337" fill="#ffffff" d="M 367.5,221.5 C 371.431,222.132 374.765,223.799 377.5,226.5C 373.817,225.325 370.484,223.659 367.5,221.5 Z"/></g>
<g><path style="opacity:1"     fill="#ffffff" d="M 343.5,216.5 C 346.807,217.051 350.14,217.384 353.5,217.5C 354.959,217.433 356.292,217.766 357.5,218.5C 360.505,220.277 363.838,221.277 367.5,221.5C 370.484,223.659 373.817,225.325 377.5,226.5C 378.899,227.89 380.566,228.89 382.5,229.5C 383.167,229.5 383.5,229.833 383.5,230.5C 383.5,230.833 383.5,231.167 383.5,231.5C 382.312,230.316 381.145,230.316 380,231.5C 377.357,228.13 373.857,226.796 369.5,227.5C 369.5,226.5 369.5,225.5 369.5,224.5C 360.655,221.471 351.988,218.804 343.5,216.5 Z"/></g>
<g><path style="opacity:0.867" fill="#ffffff" d="M 248.5,234.5 C 243.243,231.359 237.576,230.192 231.5,231C 216.023,237.795 212.356,248.629 220.5,263.5C 219.292,262.766 217.959,262.433 216.5,262.5C 211.437,249.564 214.437,239.064 225.5,231C 230.5,229.5 235.5,228 240.5,226.5C 241.167,227.5 241.833,228.5 242.5,229.5C 243.85,228.05 245.516,227.383 247.5,227.5C 247.448,229.903 247.781,232.236 248.5,234.5 Z"/></g>
<g><path style="opacity:0.435" fill="#ffffff" d="M 390.5,237.5 C 391.906,237.973 392.573,238.973 392.5,240.5C 391.094,240.027 390.427,239.027 390.5,237.5 Z"/></g>
<g><path style="opacity:0.325" fill="#ffffff" d="M 392.5,240.5 C 393.906,240.973 394.573,241.973 394.5,243.5C 393.094,243.027 392.427,242.027 392.5,240.5 Z"/></g>
<g><path style="opacity:0.831" fill="#ffffff" d="M 238.5,236.5 C 235.1,238.037 231.767,239.87 228.5,242C 226.768,243.972 225.435,246.139 224.5,248.5C 223.662,248.842 223.328,249.508 223.5,250.5C 222.549,249.081 222.216,247.415 222.5,245.5C 225.751,238.873 231.085,235.873 238.5,236.5 Z"/></g>
<g><path style="opacity:0.922" fill="#ffffff" d="M 394.5,243.5 C 396.625,246.088 397.958,249.088 398.5,252.5C 395.835,250.165 394.502,247.165 394.5,243.5 Z"/></g>
<g><path style="opacity:0.413" fill="#ffffff" d="M 222.5,245.5 C 222.216,247.415 222.549,249.081 223.5,250.5C 223.631,251.376 223.298,252.043 222.5,252.5C 221.203,250.027 221.203,247.693 222.5,245.5 Z"/></g>
<g><path style="opacity:0.725" fill="#ffffff" d="M 398.5,252.5 C 399.738,254.214 400.405,256.214 400.5,258.5C 398.926,256.898 398.259,254.898 398.5,252.5 Z"/></g>
<g><path style="opacity:0.478" fill="#ffffff" d="M 184.5,255.5 C 190.041,256.485 190.375,257.152 185.5,257.5C 185.167,256.833 184.833,256.167 184.5,255.5 Z"/></g>
<g><path style="opacity:0.475" fill="#ffffff" d="M 400.5,258.5 C 401.924,260.515 402.59,262.848 402.5,265.5C 401.076,263.485 400.41,261.152 400.5,258.5 Z"/></g>
<g><path style="opacity:0.714" fill="#ffffff" d="M 167.5,265.5 C 167.435,268.428 166.768,271.095 165.5,273.5C 165.294,270.505 165.96,267.838 167.5,265.5 Z"/></g>
<g><path style="opacity:0.4"   fill="#ffffff" d="M 402.5,265.5 C 404.205,269.463 405.538,273.63 406.5,278C 406.272,278.399 405.938,278.565 405.5,278.5C 404.057,274.385 403.057,270.052 402.5,265.5 Z"/></g>
<g><path style="opacity:0.741" fill="#ffffff" d="M 165.5,274.5 C 165.72,279.1 165.054,283.433 163.5,287.5C 163.28,282.9 163.946,278.567 165.5,274.5 Z"/></g>
<g><path style="opacity:0.788" fill="#ffffff" d="M 407.5,289.5 C 408.224,293.174 409.224,296.841 410.5,300.5C 410.117,304.459 409.117,308.126 407.5,311.5C 408.57,304.183 408.57,296.85 407.5,289.5 Z"/></g>
<g><path style="opacity:0.561" fill="#ffffff" d="M 163.5,289.5 C 163.638,294.414 162.972,299.081 161.5,303.5C 161.362,298.586 162.028,293.919 163.5,289.5 Z"/></g>
<g><path style="opacity:1"     fill="#ffffff" d="M 399.5,312.5 C 399.5,312.833 399.5,313.167 399.5,313.5C 396.505,313.294 393.838,313.96 391.5,315.5C 381.496,316.802 371.496,316.802 361.5,315.5C 357.117,313.77 352.45,312.77 347.5,312.5C 345.064,311.129 342.397,310.129 339.5,309.5C 339.167,309.5 338.833,309.5 338.5,309.5C 338.027,308.094 337.027,307.427 335.5,307.5C 332.833,307.833 332.833,308.167 335.5,308.5C 335.5,308.833 335.5,309.167 335.5,309.5C 335.5,309.833 335.5,310.167 335.5,310.5C 334.167,310.5 332.833,310.5 331.5,310.5C 331.714,308.856 331.38,307.356 330.5,306C 331.047,305.075 331.713,304.242 332.5,303.5C 335.823,305.996 339.489,307.663 343.5,308.5C 344.167,304.5 344.833,304.5 345.5,308.5C 348.836,309.603 352.17,310.77 355.5,312C 370.154,313.764 384.82,313.931 399.5,312.5 Z"/></g>
<g><path style="opacity:0.329" fill="#ffffff" d="M 347.5,312.5 C 352.45,312.77 357.117,313.77 361.5,315.5C 356.529,315.344 351.862,314.344 347.5,312.5 Z"/></g>
<g><path style="opacity:0.329" fill="#ffffff" d="M 363.5,321.5 C 375.402,324.362 387.402,325.028 399.5,323.5C 401.721,325.127 401.388,326.46 398.5,327.5C 398.611,326.883 398.944,326.383 399.5,326C 390.808,325.711 382.141,325.211 373.5,324.5C 369.829,324.243 366.495,323.243 363.5,321.5 Z"/></g>
<g><path style="opacity:0.963" fill="#ffffff" d="M 373.5,324.5 C 382.141,325.211 390.808,325.711 399.5,326C 398.944,326.383 398.611,326.883 398.5,327.5C 397.109,329.89 395.109,331.557 392.5,332.5C 391.833,332.5 391.167,332.5 390.5,332.5C 391.3,330.259 392.966,329.259 395.5,329.5C 395.5,328.5 395.5,327.5 395.5,326.5C 389.158,326.666 382.825,326.5 376.5,326C 375.263,325.768 374.263,325.268 373.5,324.5 Z"/></g>
<g><path style="opacity:0.365" fill="#ffffff" d="M 390.5,332.5 C 391.167,332.5 391.833,332.5 392.5,332.5C 390.316,334.585 387.649,335.585 384.5,335.5C 386.426,334.514 388.426,333.514 390.5,332.5 Z"/></g>
<g><path style="opacity:1"     fill="#ffffff" d="M 367.5,338.5 C 365.735,339.461 363.735,339.795 361.5,339.5C 352.549,339.825 343.883,341.158 335.5,343.5C 331.511,343.116 327.845,343.783 324.5,345.5C 323.833,345.5 323.167,345.5 322.5,345.5C 320.833,345.5 319.167,345.5 317.5,345.5C 319.389,344.678 321.389,343.845 323.5,343C 331.744,341.604 340.077,340.271 348.5,339C 354.825,338.5 361.158,338.334 367.5,338.5 Z"/></g>
<g><path style="opacity:0.518" fill="#ffffff" d="M 317.5,345.5 C 319.167,345.5 320.833,345.5 322.5,345.5C 317.409,347.129 312.076,348.129 306.5,348.5C 305.209,348.263 304.209,348.596 303.5,349.5C 302.833,359.167 302.167,368.833 301.5,378.5C 301.5,368.5 301.5,358.5 301.5,348.5C 306.706,347.508 312.039,346.508 317.5,345.5 Z"/></g>
<g><path style="opacity:1"     fill="#ffffff" d="M 301.5,348.5 C 301.5,358.5 301.5,368.5 301.5,378.5C 301.666,383.511 301.499,388.511 301,393.5C 300.722,394.416 300.222,395.082 299.5,395.5C 300.122,379.692 300.788,364.026 301.5,348.5 Z"/></g>
<g><path style="opacity:0.306" fill="#ffffff" d="M 303.5,349.5 C 303.5,361.5 303.5,373.5 303.5,385.5C 304.141,390.569 302.808,394.903 299.5,398.5C 299.5,397.5 299.5,396.5 299.5,395.5C 300.222,395.082 300.722,394.416 301,393.5C 301.499,388.511 301.666,383.511 301.5,378.5C 302.167,368.833 302.833,359.167 303.5,349.5 Z"/></g>
<g><path style="opacity:0.416" fill="#ffffff" d="M 161.5,390.5 C 161.909,396.925 163.242,403.259 165.5,409.5C 163.39,408.547 162.223,406.881 162,404.5C 161.8,400.247 161.3,396.08 160.5,392C 161.056,391.617 161.389,391.117 161.5,390.5 Z"/></g>
<g><path style="opacity:0.439" fill="#ffffff" d="M 299.5,399.5 C 299.598,401.553 298.931,403.22 297.5,404.5C 297.402,402.447 298.069,400.78 299.5,399.5 Z"/></g>
<g><path style="opacity:0.314" fill="#ffffff" d="M 167.5,411.5 C 169.749,412.08 171.415,413.413 172.5,415.5C 170.251,414.92 168.585,413.587 167.5,411.5 Z"/></g>
<g><path style="opacity:1"     fill="#ffffff" d="M 271.5,414.5 C 271.5,414.833 271.5,415.167 271.5,415.5C 267.878,415.322 264.544,415.989 261.5,417.5C 256.939,418.811 252.272,419.478 247.5,419.5C 247.953,418.542 248.619,417.708 249.5,417C 256.914,416.44 264.248,415.607 271.5,414.5 Z"/></g>
<g><path style="opacity:0.816" fill="#ffffff" d="M 174.5,416.5 C 178.162,416.723 181.495,417.723 184.5,419.5C 180.838,419.277 177.505,418.277 174.5,416.5 Z"/></g>
<g><path style="opacity:0.369" fill="#ffffff" d="M 247.5,419.5 C 242.799,420.699 237.966,421.699 233,422.5C 232.617,421.944 232.117,421.611 231.5,421.5C 236.616,420.194 241.949,419.527 247.5,419.5 Z"/></g>
</svg>
