<svg width="86" height="96" viewBox="0 0 86 96" fill="none" xmlns="http://www.w3.org/2000/svg">
<path d="M61.8125 29.2208C61.8125 32.5829 58.8046 35.3084 55.0938 35.3084H30.9062C27.1956 35.3084 24.1875 32.5829 24.1875 29.2208C24.1875 25.8586 27.1956 23.1331 30.9062 23.1331H55.0938C58.8046 23.1331 61.8125 25.8587 61.8125 29.2208Z" fill="#E02437"/>
<path d="M44.3438 57.224C48.0546 57.224 51.0625 54.4987 51.0625 51.1364C51.0625 47.774 48.0546 45.0487 44.3438 45.0487H30.9062C27.1956 45.0487 24.1875 47.774 24.1875 51.1364C24.1875 54.4987 27.1956 57.224 30.9062 57.224H44.3438Z" fill="#E02437"/>
<path fill-rule="evenodd" clip-rule="evenodd" d="M61.8125 82.7922L77.1049 94.8005C80.5852 97.5341 86 95.2939 86 91.1201V9.74026C86 4.36086 81.1872 0 75.25 0H10.75C4.81294 0 0 4.36086 0 9.74026V91.1201C0 95.2939 5.41456 97.5341 8.89525 94.8005L24.1875 82.7922L39.4853 94.7718C41.5036 96.3526 44.4964 96.3526 46.5147 94.7718L61.8125 82.7922ZM15.3869 73.5916C20.4323 69.6297 27.923 69.6249 32.9745 73.5809L43 81.432L53.0255 73.5809C58.0769 69.6249 65.5675 69.6297 70.613 73.5916L72.5625 75.1223V12.1753H13.4375V75.1223L15.3869 73.5916Z" fill="#E02437"/>
</svg>
